<svg xmlns="http://www.w3.org/2000/svg" xmlns:xlink="http://www.w3.org/1999/xlink" width="200" zoomAndPan="magnify" viewBox="0 0 150 70.499998" height="94" preserveAspectRatio="xMidYMid meet" version="1.0"><defs><clipPath id="50ceb91f73"><path d="M 18 1.367188 L 47 1.367188 L 47 5 L 18 5 Z M 18 1.367188 " clip-rule="nonzero"/></clipPath><clipPath id="b631c87d7b"><path d="M 93 23 L 149.472656 23 L 149.472656 68 L 93 68 Z M 93 23 " clip-rule="nonzero"/></clipPath></defs><path fill="#545454" d="M 31.269531 3.238281 C 30.359375 4.332031 30.628906 5.664062 30.535156 7.027344 C 30.402344 8.929688 30.191406 10.828125 30.027344 12.730469 C 29.839844 14.820312 29.761719 16.898438 29.714844 19 C 29.6875 20.164062 29.402344 21.636719 29.667969 22.769531 C 29.855469 23.566406 30.6875 23.738281 31.390625 23.878906 L 31.445312 23.886719 C 32.355469 24.070312 35.558594 22.957031 33.53125 22.132812 C 32.363281 21.660156 31.667969 21.675781 30.496094 22.132812 C 31.191406 22.71875 31.886719 23.304688 32.582031 23.886719 L 32.640625 23.878906 C 33.074219 23.800781 34.125 23.625 34.28125 23.074219 C 34.605469 21.902344 34.453125 20.53125 34.480469 19.320312 C 34.523438 17.355469 34.570312 15.402344 34.484375 13.4375 C 34.390625 11.351562 34.304688 9.265625 34.214844 7.179688 C 34.152344 5.6875 34.199219 4.253906 33.1875 3.113281 C 32.773438 2.648438 31.632812 2.796875 31.269531 3.238281 " fill-opacity="1" fill-rule="nonzero"/><g clip-path="url(#50ceb91f73)"><path fill="#545454" d="M 19.117188 4.5 C 23.890625 4.738281 28.585938 4.699219 33.355469 4.398438 C 35.4375 4.269531 37.519531 4.117188 39.597656 3.972656 C 41.613281 3.828125 43.886719 3.988281 45.816406 3.382812 C 47.386719 2.890625 46.589844 1.84375 45.355469 1.65625 C 43.492188 1.371094 41.5 1.753906 39.632812 1.925781 C 37.5625 2.121094 35.496094 2.328125 33.429688 2.515625 C 28.589844 2.960938 23.734375 3.339844 18.886719 3.671875 C 17.875 3.742188 18.375 4.460938 19.117188 4.5 " fill-opacity="1" fill-rule="nonzero"/></g><path fill="#545454" d="M 41.675781 10.535156 L 41.660156 10.542969 C 41.332031 10.542969 41.003906 10.542969 40.675781 10.542969 C 40.386719 10.414062 40.496094 10.691406 40.421875 11.054688 C 40.308594 11.628906 40.144531 12.191406 39.996094 12.757812 C 39.570312 14.386719 39.414062 15.914062 39.273438 17.59375 C 39.144531 19.160156 37.988281 22.933594 39.542969 23.882812 C 40.128906 23.386719 40.714844 22.894531 41.300781 22.402344 C 43.148438 22.621094 41.136719 22.3125 40.816406 22.3125 C 40.367188 22.3125 39.9375 22.414062 39.542969 22.628906 C 38.914062 22.972656 38.863281 23.550781 39.542969 23.882812 C 40.34375 24.273438 41.292969 24.1875 42.101562 23.882812 C 43.28125 23.433594 43 21.972656 43.03125 20.941406 C 43.089844 18.976562 43.125 17.015625 43.132812 15.054688 C 43.136719 13.621094 42.59375 11.972656 42.097656 10.625 C 41.898438 10.074219 40.761719 9.515625 40.453125 10.285156 C 40.25 10.792969 41.445312 10.738281 41.675781 10.535156 " fill-opacity="1" fill-rule="nonzero"/><path fill="#545454" d="M 41.554688 20.945312 C 41.878906 24.5625 44.636719 24.453125 47.1875 22.6875 C 48.746094 21.613281 49.667969 19.984375 50.359375 18.269531 C 51.171875 16.25 51.695312 12.496094 54.28125 11.996094 C 53.652344 11.820312 53.019531 11.644531 52.390625 11.46875 C 53.699219 15.113281 54.238281 18.816406 54.179688 22.683594 C 54.160156 23.84375 56.804688 23.539062 57.269531 22.886719 C 59.507812 19.734375 57.441406 14.402344 60.539062 11.78125 C 63.503906 9.269531 63.804688 20.164062 64.003906 21.480469 C 64.191406 22.726562 67.164062 22.628906 67.457031 21.480469 C 68.164062 18.71875 67.441406 13.496094 70.371094 11.882812 C 73.117188 10.371094 71.964844 17.667969 72.097656 18.703125 C 72.597656 22.609375 76.109375 25.089844 79.925781 24.144531 C 82.371094 23.539062 84.046875 21.867188 85.71875 20.078125 C 87.558594 18.105469 89.4375 16.007812 89.90625 13.273438 C 90.667969 8.859375 85.144531 8.6875 82.328125 9.828125 C 80.226562 10.679688 79.183594 12.578125 78.992188 14.761719 C 78.507812 20.257812 83.089844 24.382812 88.289062 24.574219 C 90.644531 24.660156 92.992188 23.84375 95.03125 22.726562 C 97.003906 21.640625 93.285156 20.738281 92.195312 21.335938 C 90.472656 22.28125 88.644531 23.078125 86.773438 22.140625 C 85.191406 21.34375 84.210938 19.617188 83.65625 18.007812 C 82.882812 15.765625 83.144531 10.851562 86.425781 11.503906 C 85.921875 11.257812 85.421875 11.011719 84.921875 10.765625 C 86.855469 13.832031 84.140625 16.808594 82.140625 19.050781 C 81.15625 20.15625 80.160156 21.300781 78.875 22.066406 C 77.738281 22.742188 77.070312 21.265625 76.613281 20.375 C 75.195312 17.589844 77.058594 14.242188 75.453125 11.625 C 73.761719 8.859375 68.210938 9.632812 66.351562 11.714844 C 64.039062 14.300781 64.742188 18.347656 64.003906 21.480469 C 65.15625 21.480469 66.304688 21.480469 67.457031 21.480469 C 66.6875 16.984375 67.535156 9.101562 60.785156 9.886719 C 57.984375 10.214844 56.535156 11.828125 55.890625 14.472656 C 55.269531 17.011719 55.792969 20.257812 54.234375 22.476562 C 55.265625 22.546875 56.296875 22.613281 57.324219 22.683594 C 57.363281 18.671875 56.734375 14.832031 55.355469 11.066406 C 55.148438 10.492188 53.921875 10.449219 53.464844 10.542969 C 49.675781 11.285156 48.921875 13.8125 48.378906 17.269531 C 48.136719 18.8125 47.714844 20.367188 46.777344 21.640625 C 46.25 22.355469 45.523438 22.9375 44.742188 23.351562 C 42.816406 24.371094 41.871094 22.390625 41.59375 20.945312 L 41.554688 20.945312 " fill-opacity="1" fill-rule="nonzero"/><path fill="#545454" d="M 96.363281 7.777344 C 102.613281 8.191406 109.589844 8.632812 115.6875 6.878906 C 116.394531 6.671875 117.453125 5.949219 116.578125 5.214844 C 115.726562 4.503906 114.199219 4.460938 113.1875 4.78125 C 110.644531 5.589844 107.8125 5.710938 105.160156 5.8125 C 102.210938 5.921875 99.300781 6.371094 96.363281 6.605469 C 95.261719 6.691406 95.25 7.703125 96.363281 7.777344 " fill-opacity="1" fill-rule="nonzero"/><path fill="#545454" d="M 23.046875 30.382812 C 22.371094 33.261719 21.695312 36.140625 21.570312 39.105469 C 21.441406 42.289062 21.410156 45.480469 21.371094 48.671875 C 21.332031 51.859375 21.285156 55.046875 21.167969 58.234375 C 21.109375 59.828125 21.019531 61.414062 20.910156 63.003906 C 20.800781 64.546875 20.460938 65.855469 21.296875 67.226562 C 22.339844 68.933594 26.683594 67.351562 24.726562 66.25 C 23.542969 65.582031 23.046875 65.6875 21.824219 66.25 C 22.96875 66.574219 24.113281 66.902344 25.253906 67.226562 C 26.898438 65.238281 26.394531 61.507812 26.46875 59.03125 C 26.5625 55.84375 26.550781 52.65625 26.539062 49.46875 C 26.527344 46.277344 26.515625 43.089844 26.570312 39.898438 C 26.621094 36.710938 26.332031 33.566406 26.214844 30.382812 C 26.175781 29.246094 23.289062 29.34375 23.046875 30.382812 " fill-opacity="1" fill-rule="nonzero"/><path fill="#545454" d="M 2.882812 30.972656 C 1.777344 33.035156 9.375 32.636719 10.113281 32.613281 C 15.683594 32.4375 21.242188 32.488281 26.820312 32.378906 C 32.722656 32.261719 38.625 32.082031 44.527344 32.015625 C 49.769531 31.957031 55.6875 32.933594 60.699219 31.058594 C 63.230469 30.113281 62.136719 28.449219 59.914062 28.121094 C 59.871094 28.113281 59.832031 28.105469 59.789062 28.101562 C 58.613281 27.925781 56.433594 28.003906 55.75 29.226562 C 55.042969 30.484375 57.261719 31.097656 58.042969 31.203125 C 58.085938 31.210938 58.128906 31.214844 58.167969 31.222656 C 57.6875 30.324219 57.203125 29.429688 56.722656 28.53125 C 54.882812 29.25 52.660156 28.953125 50.738281 28.902344 C 48.402344 28.847656 46.058594 28.925781 43.722656 28.980469 C 38.890625 29.085938 34.058594 29.277344 29.230469 29.441406 C 24.457031 29.605469 19.679688 29.652344 14.910156 29.882812 C 12.859375 29.980469 10.832031 30.332031 8.789062 30.523438 C 8.023438 30.597656 7.242188 30.605469 6.472656 30.667969 C 6.183594 30.71875 5.890625 30.777344 5.605469 30.835938 C 5.460938 30.863281 5.316406 30.890625 5.171875 30.917969 C 4.652344 30.929688 4.628906 30.996094 5.105469 31.121094 C 5.085938 30.335938 3.179688 30.417969 2.882812 30.972656 " fill-opacity="1" fill-rule="nonzero"/><path fill="#545454" d="M 28.585938 65.003906 C 32.953125 63.738281 35.097656 58.839844 36.144531 54.847656 C 37.054688 51.378906 38.164062 45.410156 35.179688 42.578125 C 34.714844 42.136719 32.136719 42.113281 32.632812 43.101562 C 34.203125 46.238281 36.035156 50.136719 39.933594 50.738281 C 42.066406 51.0625 45.433594 50.402344 46.820312 48.59375 C 48.292969 46.671875 46.449219 43.695312 44.050781 44.214844 C 40.8125 44.917969 40.828125 50.21875 40.847656 52.625 C 40.882812 56.703125 40.644531 61.394531 43.476562 64.6875 C 45.585938 67.148438 49.378906 67.171875 51.914062 65.351562 C 53.578125 64.15625 54.539062 62.964844 54.964844 60.957031 C 55.457031 58.648438 55.246094 56.238281 55.726562 53.914062 C 56.117188 52.035156 57.011719 50.035156 57.730469 48.242188 C 58.597656 46.078125 60.007812 44.429688 62.285156 43.71875 C 61.769531 43.285156 61.25 42.851562 60.734375 42.417969 C 56.535156 43.773438 54.617188 50.234375 53.613281 53.96875 C 52.671875 57.488281 51.050781 64.804688 56.351562 65.652344 C 67.695312 67.46875 74.898438 45.386719 62.640625 42.121094 C 61.699219 41.867188 60.371094 41.847656 59.574219 42.511719 C 58.761719 43.191406 59.761719 43.804688 60.378906 44.015625 C 63.449219 45.066406 63.949219 49.511719 64.269531 52.214844 C 64.664062 55.5 64.605469 58.914062 65.699219 62.074219 C 66.902344 65.554688 71.394531 66.828125 74.691406 65.953125 C 78.488281 64.941406 81.140625 61.398438 81.722656 57.59375 C 81.925781 56.242188 77.660156 56.054688 77.417969 57.59375 C 77.171875 59.140625 76.476562 60.519531 75.582031 61.792969 C 74.441406 63.414062 72.949219 64.609375 71.136719 63.390625 C 69.285156 62.144531 69.292969 58.480469 69.121094 56.550781 C 68.636719 51.207031 68.765625 44.109375 62.640625 42.121094 C 61.886719 42.75 61.132812 43.382812 60.378906 44.015625 C 65.1875 45.222656 65.28125 51.054688 64.351562 54.988281 C 63.792969 57.355469 62.605469 59.75 61.003906 61.578125 C 60.300781 62.378906 59.472656 63.066406 58.527344 63.554688 C 58.230469 63.710938 57.886719 63.84375 57.558594 63.910156 C 56.933594 64.035156 57.675781 64.066406 57.464844 63.933594 C 54.777344 62.195312 56.492188 55.933594 57.089844 53.59375 C 57.65625 51.382812 58.492188 49.214844 59.539062 47.1875 C 60.089844 46.125 61.039062 44.136719 62.285156 43.71875 C 64.195312 43.074219 61.785156 42.074219 60.734375 42.417969 C 55.941406 43.980469 54.210938 48.628906 53.140625 53.203125 C 52.429688 56.242188 53.070312 59.914062 51.632812 62.722656 C 50.941406 64.074219 48.664062 65.757812 47.136719 65.117188 C 45.785156 64.554688 44.972656 63.046875 44.390625 61.792969 C 43.027344 58.839844 43.226562 55.039062 43.105469 51.855469 C 43.058594 50.523438 43.125 49.132812 43.398438 47.824219 C 43.523438 47.214844 43.796875 46.636719 44.078125 46.089844 C 44.542969 45.179688 44.492188 45.03125 45.105469 45.949219 C 46.773438 48.433594 42.96875 49.839844 41.097656 49.695312 C 38.164062 49.472656 36.398438 44.933594 35.320312 42.738281 C 34.472656 42.914062 33.621094 43.089844 32.773438 43.265625 C 35.25 45.652344 34.105469 51.058594 33.464844 53.945312 C 32.964844 56.203125 32.078125 58.371094 31.207031 60.503906 C 30.550781 62.117188 29.550781 63.835938 27.898438 64.570312 C 27.328125 64.824219 28.324219 65.082031 28.585938 65.003906 " fill-opacity="1" fill-rule="nonzero"/><path fill="#545454" d="M 78.675781 42.820312 C 77.988281 47.019531 77.402344 50.992188 77.601562 55.265625 C 77.785156 59.222656 78.164062 64.289062 81.914062 66.539062 C 86.828125 69.492188 92.550781 64.933594 95.164062 61.070312 C 98.683594 55.859375 100.03125 49.007812 100.257812 42.820312 C 100.3125 41.445312 96.335938 41.40625 96.183594 42.820312 C 95.597656 48.28125 94.222656 53.847656 91.578125 58.683594 C 90.3125 60.996094 88.582031 63.175781 86.230469 64.449219 C 86.148438 64.496094 85.457031 64.816406 85.453125 64.820312 C 84.847656 64.945312 85.484375 64.800781 85.667969 64.851562 C 85.578125 64.824219 85.003906 64.25 84.773438 63.9375 C 82.519531 60.832031 81.964844 56.574219 81.496094 52.875 C 81.070312 49.511719 80.566406 46.171875 80.03125 42.820312 C 79.957031 42.351562 78.75 42.351562 78.675781 42.820312 " fill-opacity="1" fill-rule="nonzero"/><g clip-path="url(#b631c87d7b)"><path fill="#545454" d="M 94.078125 59.589844 C 101.535156 62.484375 110.078125 59.199219 115.199219 53.453125 C 117.5 50.867188 121.738281 42.390625 115.988281 41.171875 C 107.617188 39.402344 103.992188 48.761719 102.578125 55.199219 C 101.878906 58.363281 101.378906 62.113281 103.804688 64.652344 C 106.527344 67.5 111.898438 67.265625 115.382812 66.519531 C 130.925781 63.199219 135.769531 44.328125 135.066406 30.558594 C 134.933594 27.941406 134.804688 23.910156 131.476562 23.484375 C 127.84375 23.019531 126.871094 25.542969 126.074219 28.515625 C 123.859375 36.773438 124.292969 44.820312 124.285156 53.292969 C 124.277344 59.128906 127.589844 63.789062 133.042969 65.769531 C 135.953125 66.824219 139.246094 66.925781 142.238281 66.238281 C 145.296875 65.53125 147.222656 63.472656 148.957031 61 C 149.421875 60.335938 147.421875 60.378906 147.09375 60.613281 C 144.984375 62.148438 142.605469 63.679688 140.085938 64.429688 C 137.640625 65.164062 134.535156 64.058594 132.554688 62.625 C 128.34375 59.574219 128.355469 54.558594 128.183594 49.890625 C 127.890625 42.023438 128.253906 34.0625 131.535156 26.742188 C 131.714844 26.339844 131.925781 25.839844 132.234375 25.519531 C 130.164062 27.667969 128.28125 24.355469 129.039062 25.652344 C 129.164062 25.867188 129.253906 26.125 129.316406 26.359375 C 129.753906 27.984375 129.84375 29.722656 129.925781 31.394531 C 130.066406 34.199219 130.015625 36.980469 129.664062 39.765625 C 128.679688 47.578125 125.796875 56.085938 119.578125 61.269531 C 117.265625 63.199219 114.28125 64.53125 111.242188 64.585938 C 107.9375 64.644531 106.785156 62.21875 106.808594 59.261719 C 106.835938 56.246094 107.6875 53.09375 108.628906 50.253906 C 109.425781 47.847656 110.5625 44.539062 113.03125 43.402344 C 113.535156 43.167969 114.0625 42.996094 114.609375 42.917969 C 114.238281 42.96875 114.460938 42.894531 114.691406 43.226562 C 115.195312 43.953125 115.128906 44.988281 115.066406 45.824219 C 114.925781 47.75 114.222656 49.753906 113.246094 51.417969 C 109.523438 57.761719 101.621094 61.527344 94.488281 59.328125 C 94.324219 59.277344 93.738281 59.457031 94.078125 59.589844 " fill-opacity="1" fill-rule="nonzero"/></g><path fill="#545454" d="M 105.429688 5.84375 C 104.40625 7.726562 104.507812 9.214844 104.46875 11.328125 C 104.441406 12.835938 104.238281 14.328125 104.164062 15.832031 C 104.035156 18.398438 104.417969 21.003906 104.433594 23.578125 C 104.441406 24.570312 107.15625 24.554688 107.304688 23.578125 C 107.675781 21.167969 108.039062 18.675781 108.136719 16.238281 C 108.269531 12.796875 108.621094 8.894531 106.902344 5.84375 C 106.683594 5.453125 105.644531 5.445312 105.429688 5.84375 " fill-opacity="1" fill-rule="nonzero"/><path fill="#545454" d="M 116.996094 12.269531 C 114.125 13.464844 112.769531 15.523438 112.070312 18.539062 C 111.535156 20.839844 112.226562 23.273438 114.609375 24.121094 C 119.648438 25.90625 124.898438 20.515625 123.085938 15.488281 C 122.238281 13.140625 120.59375 10.6875 117.667969 11.261719 C 115.695312 11.648438 113.832031 13.234375 116.054688 14.847656 C 117.921875 16.203125 120.429688 16.296875 122.621094 15.878906 C 123.902344 15.636719 127.945312 14.316406 127.101562 12.457031 C 126.820312 11.835938 125.5 11.941406 125.027344 12.1875 C 124.21875 12.617188 123.808594 13.289062 123.089844 13.839844 C 122 14.671875 120.367188 14.851562 119.078125 14.511719 C 118.898438 14.433594 118.71875 14.351562 118.539062 14.273438 C 117.78125 13.789062 117.703125 13.507812 118.3125 13.4375 C 118.851562 13.90625 119.175781 14.734375 119.457031 15.375 C 120.121094 16.886719 120.265625 18.378906 119.742188 19.949219 C 119.335938 21.171875 118.347656 22.261719 117.25 22.90625 C 115.679688 23.828125 114.550781 21.605469 114.359375 20.417969 C 114.121094 18.9375 114.625 17.253906 114.765625 15.777344 C 114.914062 14.210938 115.90625 13.167969 117.144531 12.328125 C 117.21875 12.277344 117.027344 12.257812 116.996094 12.269531 " fill-opacity="1" fill-rule="nonzero"/><path fill="#545454" d="M 43.277344 7.5 L 43.296875 7.449219 C 42.03125 7.277344 40.761719 7.105469 39.492188 6.933594 C 39.460938 7.023438 39.429688 7.109375 39.394531 7.199219 C 39.308594 7.355469 39.308594 7.515625 39.394531 7.671875 C 39.558594 7.964844 39.929688 8.117188 40.230469 8.207031 C 40.90625 8.398438 41.804688 8.410156 42.4375 8.066406 C 41.488281 8.316406 41.363281 8.363281 42.070312 8.207031 C 42.257812 8.152344 42.351562 8.113281 42.488281 8.039062 C 42.535156 8.011719 42.582031 7.988281 42.625 7.964844 C 42.679688 7.933594 42.734375 7.90625 42.789062 7.875 C 43.046875 7.734375 43.367188 7.53125 43.367188 7.191406 C 43.367188 6.863281 43.050781 6.632812 42.789062 6.507812 C 41.976562 6.109375 40.8125 6.101562 40 6.507812 L 39.929688 6.546875 C 39.667969 6.6875 39.339844 6.898438 39.339844 7.238281 C 39.339844 7.726562 39.957031 7.980469 40.332031 8.089844 C 40.832031 8.230469 41.367188 8.257812 41.878906 8.1875 C 42.1875 8.148438 42.480469 8.066406 42.761719 7.933594 C 42.980469 7.839844 43.152344 7.695312 43.277344 7.5 " fill-opacity="1" fill-rule="nonzero"/><path fill="#ffde59" d="M 30.050781 1.867188 C 29.140625 2.964844 29.410156 4.292969 29.316406 5.660156 C 29.183594 7.5625 28.976562 9.460938 28.808594 11.359375 C 28.625 13.453125 28.542969 15.53125 28.496094 17.628906 C 28.46875 18.792969 28.1875 20.265625 28.449219 21.398438 C 28.636719 22.199219 29.46875 22.367188 30.175781 22.507812 L 30.226562 22.519531 C 31.136719 22.699219 34.339844 21.589844 32.3125 20.761719 C 31.144531 20.289062 30.449219 20.308594 29.28125 20.761719 C 29.976562 21.347656 30.671875 21.933594 31.367188 22.519531 L 31.421875 22.507812 C 31.855469 22.429688 32.90625 22.257812 33.0625 21.707031 C 33.386719 20.535156 33.234375 19.164062 33.261719 17.953125 C 33.304688 15.988281 33.351562 14.035156 33.265625 12.070312 C 33.175781 9.984375 33.085938 7.898438 32.996094 5.808594 C 32.933594 4.320312 32.984375 2.882812 31.96875 1.746094 C 31.554688 1.28125 30.414062 1.429688 30.050781 1.867188 " fill-opacity="1" fill-rule="nonzero"/><path fill="#ffde59" d="M 17.898438 3.128906 C 22.671875 3.367188 27.371094 3.328125 32.136719 3.03125 C 34.21875 2.902344 36.300781 2.75 38.378906 2.601562 C 40.394531 2.460938 42.667969 2.617188 44.597656 2.015625 C 46.167969 1.523438 45.371094 0.476562 44.136719 0.285156 C 42.273438 0 40.285156 0.382812 38.414062 0.558594 C 36.347656 0.75 34.277344 0.957031 32.210938 1.148438 C 27.371094 1.589844 22.515625 1.972656 17.667969 2.300781 C 16.65625 2.371094 17.15625 3.09375 17.898438 3.128906 " fill-opacity="1" fill-rule="nonzero"/><path fill="#ffde59" d="M 40.457031 9.167969 L 40.441406 9.175781 C 40.113281 9.175781 39.785156 9.175781 39.457031 9.175781 C 39.167969 9.046875 39.277344 9.320312 39.203125 9.6875 C 39.089844 10.261719 38.925781 10.824219 38.78125 11.386719 C 38.355469 13.019531 38.195312 14.546875 38.054688 16.226562 C 37.925781 17.789062 36.769531 21.566406 38.324219 22.511719 C 38.914062 22.019531 39.5 21.527344 40.085938 21.03125 C 41.929688 21.25 39.917969 20.945312 39.597656 20.945312 C 39.148438 20.945312 38.722656 21.046875 38.324219 21.261719 C 37.695312 21.605469 37.644531 22.179688 38.324219 22.511719 C 39.125 22.90625 40.078125 22.820312 40.882812 22.511719 C 42.0625 22.0625 41.78125 20.605469 41.8125 19.570312 C 41.875 17.609375 41.90625 15.648438 41.914062 13.6875 C 41.917969 12.253906 41.375 10.601562 40.878906 9.253906 C 40.679688 8.707031 39.542969 8.144531 39.234375 8.914062 C 39.035156 9.421875 40.226562 9.371094 40.457031 9.167969 " fill-opacity="1" fill-rule="nonzero"/><path fill="#ffde59" d="M 40.335938 19.578125 C 40.664062 23.195312 43.417969 23.085938 45.972656 21.320312 C 47.53125 20.242188 48.449219 18.617188 49.140625 16.898438 C 49.957031 14.882812 50.476562 11.125 53.0625 10.625 C 52.433594 10.449219 51.800781 10.273438 51.171875 10.101562 C 52.480469 13.746094 53.019531 17.449219 52.960938 21.3125 C 52.941406 22.476562 55.589844 22.171875 56.050781 21.519531 C 58.289062 18.367188 56.222656 13.035156 59.320312 10.414062 C 62.285156 7.902344 62.585938 18.796875 62.785156 20.113281 C 62.972656 21.355469 65.945312 21.257812 66.238281 20.113281 C 66.945312 17.347656 66.222656 12.128906 69.152344 10.515625 C 71.898438 9.003906 70.746094 16.296875 70.878906 17.332031 C 71.378906 21.242188 74.890625 23.722656 78.707031 22.777344 C 81.152344 22.171875 82.828125 20.496094 84.5 18.707031 C 86.339844 16.738281 88.21875 14.636719 88.691406 11.902344 C 89.449219 7.488281 83.925781 7.316406 81.109375 8.460938 C 79.007812 9.3125 77.964844 11.210938 77.773438 13.394531 C 77.289062 18.886719 81.875 23.015625 87.070312 23.203125 C 89.429688 23.292969 91.773438 22.476562 93.8125 21.355469 C 95.785156 20.273438 92.066406 19.367188 90.976562 19.96875 C 89.253906 20.914062 87.429688 21.710938 85.558594 20.769531 C 83.972656 19.976562 82.992188 18.25 82.4375 16.640625 C 81.664062 14.398438 81.925781 9.480469 85.207031 10.136719 C 84.707031 9.890625 84.203125 9.644531 83.703125 9.398438 C 85.636719 12.464844 82.921875 15.441406 80.921875 17.683594 C 79.9375 18.789062 78.941406 19.933594 77.65625 20.699219 C 76.523438 21.375 75.851562 19.894531 75.394531 19.003906 C 73.976562 16.222656 75.839844 12.871094 74.238281 10.253906 C 72.542969 7.492188 66.992188 8.265625 65.132812 10.347656 C 62.820312 12.933594 63.523438 16.976562 62.785156 20.113281 C 63.9375 20.113281 65.085938 20.113281 66.238281 20.113281 C 65.46875 15.613281 66.316406 7.734375 59.566406 8.519531 C 56.769531 8.84375 55.316406 10.460938 54.671875 13.105469 C 54.050781 15.644531 54.578125 18.886719 53.015625 21.109375 C 54.046875 21.175781 55.078125 21.246094 56.105469 21.3125 C 56.144531 17.304688 55.515625 13.464844 54.136719 9.699219 C 53.929688 9.125 52.703125 9.082031 52.246094 9.171875 C 48.457031 9.917969 47.703125 12.441406 47.160156 15.902344 C 46.917969 17.445312 46.496094 19 45.558594 20.269531 C 45.035156 20.984375 44.304688 21.566406 43.523438 21.980469 C 41.597656 23.003906 40.652344 21.019531 40.378906 19.578125 L 40.335938 19.578125 " fill-opacity="1" fill-rule="nonzero"/><path fill="#ffde59" d="M 95.144531 6.40625 C 101.398438 6.824219 108.371094 7.261719 114.46875 5.507812 C 115.175781 5.304688 116.234375 4.582031 115.359375 3.847656 C 114.507812 3.136719 112.980469 3.09375 111.96875 3.414062 C 109.425781 4.21875 106.59375 4.34375 103.941406 4.441406 C 100.992188 4.554688 98.082031 5.003906 95.144531 5.234375 C 94.042969 5.320312 94.035156 6.335938 95.144531 6.40625 " fill-opacity="1" fill-rule="nonzero"/><path fill="#ffde59" d="M 21.828125 29.011719 C 21.152344 31.894531 20.476562 34.773438 20.351562 37.734375 C 20.222656 40.921875 20.191406 44.113281 20.152344 47.300781 C 20.113281 50.492188 20.066406 53.679688 19.949219 56.867188 C 19.890625 58.457031 19.800781 60.046875 19.691406 61.632812 C 19.582031 63.179688 19.242188 64.488281 20.082031 65.859375 C 21.125 67.566406 25.464844 65.984375 23.507812 64.878906 C 22.324219 64.210938 21.828125 64.320312 20.609375 64.878906 C 21.75 65.207031 22.894531 65.53125 24.035156 65.859375 C 25.679688 63.871094 25.175781 60.136719 25.25 57.664062 C 25.34375 54.476562 25.332031 51.285156 25.320312 48.097656 C 25.3125 44.910156 25.296875 41.71875 25.351562 38.53125 C 25.40625 35.34375 25.113281 32.199219 24.996094 29.011719 C 24.957031 27.875 22.070312 27.972656 21.828125 29.011719 " fill-opacity="1" fill-rule="nonzero"/><path fill="#ffde59" d="M 1.664062 29.601562 C 0.558594 31.667969 8.15625 31.265625 8.894531 31.242188 C 14.464844 31.070312 20.027344 31.121094 25.601562 31.007812 C 31.503906 30.890625 37.40625 30.710938 43.3125 30.644531 C 48.550781 30.585938 54.46875 31.5625 59.480469 29.691406 C 62.011719 28.742188 60.917969 27.082031 58.695312 26.75 C 58.652344 26.746094 58.613281 26.738281 58.570312 26.734375 C 57.394531 26.558594 55.214844 26.636719 54.53125 27.855469 C 53.828125 29.113281 56.042969 29.726562 56.824219 29.835938 C 56.867188 29.839844 56.910156 29.847656 56.949219 29.851562 C 56.46875 28.957031 55.984375 28.058594 55.503906 27.164062 C 53.664062 27.878906 51.445312 27.582031 49.519531 27.535156 C 47.183594 27.476562 44.839844 27.558594 42.503906 27.609375 C 37.671875 27.71875 32.84375 27.910156 28.011719 28.074219 C 23.238281 28.234375 18.460938 28.28125 13.691406 28.511719 C 11.640625 28.613281 9.613281 28.960938 7.574219 29.15625 C 6.804688 29.226562 6.023438 29.234375 5.253906 29.300781 C 4.964844 29.351562 4.675781 29.40625 4.386719 29.46875 C 4.242188 29.496094 4.097656 29.523438 3.957031 29.550781 C 3.433594 29.558594 3.410156 29.628906 3.890625 29.75 C 3.867188 28.964844 1.960938 29.050781 1.664062 29.601562 " fill-opacity="1" fill-rule="nonzero"/><path fill="#ffde59" d="M 27.367188 63.636719 C 31.734375 62.367188 33.878906 57.472656 34.925781 53.476562 C 35.835938 50.011719 36.945312 44.042969 33.964844 41.207031 C 33.5 40.765625 30.917969 40.746094 31.414062 41.734375 C 32.988281 44.871094 34.816406 48.769531 38.71875 49.367188 C 40.847656 49.695312 44.214844 49.035156 45.601562 47.226562 C 47.078125 45.300781 45.230469 42.328125 42.832031 42.847656 C 39.597656 43.550781 39.613281 48.851562 39.632812 51.253906 C 39.664062 55.335938 39.425781 60.027344 42.257812 63.320312 C 44.371094 65.78125 48.160156 65.800781 50.699219 63.980469 C 52.359375 62.789062 53.320312 61.59375 53.746094 59.589844 C 54.238281 57.28125 54.027344 54.871094 54.507812 52.546875 C 54.898438 50.664062 55.792969 48.664062 56.511719 46.875 C 57.378906 44.707031 58.789062 43.058594 61.066406 42.347656 C 60.550781 41.914062 60.03125 41.484375 59.515625 41.046875 C 55.316406 42.402344 53.398438 48.863281 52.394531 52.601562 C 51.453125 56.121094 49.835938 63.4375 55.132812 64.285156 C 66.480469 66.097656 73.679688 44.015625 61.421875 40.75 C 60.480469 40.5 59.152344 40.480469 58.355469 41.144531 C 57.542969 41.824219 58.546875 42.4375 59.160156 42.648438 C 62.230469 43.699219 62.730469 48.144531 63.054688 50.84375 C 63.445312 54.128906 63.386719 57.546875 64.480469 60.707031 C 65.683594 64.183594 70.175781 65.460938 73.472656 64.582031 C 77.269531 63.574219 79.925781 60.027344 80.503906 56.222656 C 80.710938 54.871094 76.445312 54.6875 76.199219 56.222656 C 75.957031 57.773438 75.257812 59.152344 74.363281 60.425781 C 73.226562 62.046875 71.734375 63.242188 69.917969 62.023438 C 68.066406 60.777344 68.074219 57.113281 67.902344 55.179688 C 67.421875 49.839844 67.546875 42.742188 61.421875 40.75 C 60.667969 41.382812 59.914062 42.015625 59.160156 42.648438 C 63.96875 43.851562 64.0625 49.6875 63.136719 53.621094 C 62.578125 55.988281 61.386719 58.378906 59.785156 60.210938 C 59.085938 61.011719 58.253906 61.699219 57.308594 62.1875 C 57.011719 62.339844 56.667969 62.472656 56.339844 62.539062 C 55.714844 62.664062 56.460938 62.699219 56.25 62.5625 C 53.558594 60.828125 55.273438 54.5625 55.871094 52.226562 C 56.4375 50.011719 57.273438 47.847656 58.320312 45.816406 C 58.871094 44.757812 59.824219 42.769531 61.066406 42.347656 C 62.976562 41.703125 60.570312 40.703125 59.515625 41.046875 C 54.722656 42.613281 52.992188 47.257812 51.925781 51.832031 C 51.214844 54.875 51.851562 58.546875 50.414062 61.355469 C 49.722656 62.703125 47.445312 64.386719 45.917969 63.75 C 44.566406 63.183594 43.753906 61.675781 43.175781 60.421875 C 41.808594 57.46875 42.007812 53.667969 41.886719 50.488281 C 41.839844 49.15625 41.90625 47.761719 42.179688 46.457031 C 42.304688 45.847656 42.578125 45.269531 42.859375 44.722656 C 43.324219 43.808594 43.273438 43.664062 43.886719 44.578125 C 45.554688 47.066406 41.75 48.46875 39.878906 48.328125 C 36.945312 48.105469 35.183594 43.566406 34.105469 41.371094 C 33.253906 41.546875 32.402344 41.722656 31.554688 41.898438 C 34.03125 44.285156 32.886719 49.691406 32.246094 52.578125 C 31.746094 54.832031 30.859375 57.003906 29.988281 59.132812 C 29.332031 60.746094 28.332031 62.464844 26.679688 63.199219 C 26.109375 63.457031 27.109375 63.710938 27.367188 63.636719 " fill-opacity="1" fill-rule="nonzero"/><path fill="#ffde59" d="M 77.457031 41.453125 C 76.769531 45.648438 76.183594 49.625 76.382812 53.898438 C 76.566406 57.855469 76.945312 62.917969 80.695312 65.171875 C 85.609375 68.121094 91.332031 63.5625 93.945312 59.699219 C 97.46875 54.492188 98.8125 47.636719 99.039062 41.453125 C 99.09375 40.074219 95.117188 40.039062 94.964844 41.453125 C 94.378906 46.910156 93.003906 52.480469 90.359375 57.316406 C 89.09375 59.628906 87.363281 61.808594 85.015625 63.082031 C 84.929688 63.128906 84.238281 63.449219 84.234375 63.449219 C 83.628906 63.574219 84.269531 63.429688 84.449219 63.480469 C 84.359375 63.457031 83.785156 62.882812 83.554688 62.566406 C 81.300781 59.460938 80.746094 55.207031 80.277344 51.507812 C 79.851562 48.144531 79.347656 44.804688 78.816406 41.453125 C 78.738281 40.980469 77.53125 40.984375 77.457031 41.453125 " fill-opacity="1" fill-rule="nonzero"/><path fill="#ffde59" d="M 92.859375 58.222656 C 100.316406 61.117188 108.859375 57.828125 113.980469 52.082031 C 116.28125 49.5 120.519531 41.019531 114.769531 39.804688 C 106.398438 38.035156 102.777344 47.394531 101.359375 53.832031 C 100.664062 56.996094 100.160156 60.746094 102.585938 63.28125 C 105.308594 66.128906 110.679688 65.894531 114.164062 65.148438 C 129.707031 61.828125 134.550781 42.957031 133.847656 29.191406 C 133.714844 26.574219 133.585938 22.539062 130.257812 22.117188 C 126.625 21.652344 125.652344 24.175781 124.855469 27.144531 C 122.640625 35.402344 123.074219 43.449219 123.066406 51.921875 C 123.058594 57.761719 126.371094 62.421875 131.824219 64.398438 C 134.734375 65.457031 138.027344 65.558594 141.019531 64.867188 C 144.078125 64.164062 146.003906 62.105469 147.738281 59.632812 C 148.207031 58.96875 146.203125 59.007812 145.878906 59.246094 C 143.765625 60.777344 141.390625 62.308594 138.867188 63.0625 C 136.421875 63.792969 133.316406 62.691406 131.339844 61.257812 C 127.125 58.207031 127.136719 53.191406 126.964844 48.523438 C 126.671875 40.652344 127.035156 32.695312 130.316406 25.371094 C 130.496094 24.972656 130.707031 24.472656 131.015625 24.152344 C 128.949219 26.300781 127.0625 22.984375 127.824219 24.285156 C 127.945312 24.496094 128.035156 24.753906 128.097656 24.992188 C 128.535156 26.617188 128.625 28.355469 128.710938 30.027344 C 128.847656 32.828125 128.796875 35.613281 128.445312 38.394531 C 127.460938 46.210938 124.582031 54.714844 118.359375 59.902344 C 116.046875 61.832031 113.066406 63.164062 110.027344 63.21875 C 106.722656 63.277344 105.566406 60.851562 105.59375 57.890625 C 105.617188 54.878906 106.472656 51.722656 107.410156 48.886719 C 108.210938 46.480469 109.34375 43.167969 111.8125 42.03125 C 112.316406 41.800781 112.84375 41.628906 113.390625 41.546875 C 113.023438 41.601562 113.242188 41.523438 113.472656 41.855469 C 113.976562 42.582031 113.910156 43.621094 113.851562 44.457031 C 113.707031 46.382812 113.003906 48.386719 112.027344 50.046875 C 108.304688 56.394531 100.402344 60.15625 93.269531 57.960938 C 93.105469 57.910156 92.519531 58.089844 92.859375 58.222656 " fill-opacity="1" fill-rule="nonzero"/><path fill="#ffde59" d="M 104.210938 4.476562 C 103.1875 6.355469 103.289062 7.84375 103.25 9.960938 C 103.222656 11.46875 103.019531 12.960938 102.945312 14.464844 C 102.816406 17.03125 103.199219 19.636719 103.214844 22.207031 C 103.222656 23.203125 105.9375 23.183594 106.085938 22.207031 C 106.457031 19.796875 106.824219 17.308594 106.917969 14.871094 C 107.050781 11.429688 107.402344 7.523438 105.683594 4.476562 C 105.464844 4.085938 104.429688 4.078125 104.210938 4.476562 " fill-opacity="1" fill-rule="nonzero"/><path fill="#ffde59" d="M 115.777344 10.902344 C 112.90625 12.097656 111.554688 14.152344 110.851562 17.167969 C 110.316406 19.472656 111.007812 21.902344 113.394531 22.75 C 118.429688 24.539062 123.679688 19.148438 121.867188 14.121094 C 121.019531 11.773438 119.375 9.316406 116.453125 9.890625 C 114.476562 10.28125 112.613281 11.867188 114.839844 13.480469 C 116.703125 14.832031 119.214844 14.929688 121.402344 14.511719 C 122.683594 14.265625 126.726562 12.945312 125.882812 11.089844 C 125.601562 10.46875 124.28125 10.570312 123.808594 10.820312 C 123 11.246094 122.589844 11.921875 121.871094 12.472656 C 120.78125 13.304688 119.148438 13.480469 117.863281 13.140625 C 117.679688 13.0625 117.5 12.984375 117.320312 12.90625 C 116.5625 12.417969 116.488281 12.140625 117.09375 12.070312 C 117.636719 12.539062 117.960938 13.367188 118.238281 14.007812 C 118.902344 15.515625 119.046875 17.011719 118.523438 18.582031 C 118.117188 19.800781 117.128906 20.894531 116.03125 21.539062 C 114.460938 22.457031 113.332031 20.234375 113.140625 19.046875 C 112.902344 17.570312 113.410156 15.882812 113.546875 14.410156 C 113.695312 12.839844 114.6875 11.800781 115.925781 10.957031 C 116 10.910156 115.8125 10.886719 115.777344 10.902344 " fill-opacity="1" fill-rule="nonzero"/><path fill="#ffde59" d="M 42.0625 6.132812 L 42.082031 6.078125 C 40.8125 5.90625 39.542969 5.738281 38.273438 5.566406 C 38.242188 5.652344 38.210938 5.742188 38.175781 5.828125 C 38.089844 5.988281 38.089844 6.144531 38.175781 6.304688 C 38.34375 6.597656 38.710938 6.75 39.015625 6.835938 C 39.6875 7.03125 40.585938 7.039062 41.21875 6.699219 C 40.269531 6.949219 40.144531 6.992188 40.851562 6.835938 C 41.039062 6.78125 41.132812 6.742188 41.273438 6.667969 C 41.316406 6.644531 41.363281 6.621094 41.40625 6.59375 C 41.464844 6.566406 41.519531 6.535156 41.574219 6.507812 C 41.832031 6.367188 42.152344 6.160156 42.152344 5.824219 C 42.152344 5.492188 41.832031 5.265625 41.574219 5.136719 C 40.757812 4.738281 39.597656 4.734375 38.78125 5.136719 L 38.710938 5.175781 C 38.449219 5.316406 38.121094 5.527344 38.121094 5.871094 C 38.121094 6.355469 38.738281 6.613281 39.117188 6.71875 C 39.613281 6.863281 40.148438 6.886719 40.660156 6.820312 C 40.96875 6.78125 41.265625 6.695312 41.546875 6.566406 C 41.761719 6.472656 41.933594 6.328125 42.0625 6.132812 " fill-opacity="1" fill-rule="nonzero"/></svg>